<svg width="1041" height="901" viewBox="0 0 1041 901" fill="none" xmlns="http://www.w3.org/2000/svg">
<g clip-path="url(#clip0_237_3342)">
<g filter="url(#filter0_f_237_3342)">
<path d="M437.051 804.519C624.885 804.519 777.156 652.287 777.156 464.5C777.156 276.713 624.885 124.481 437.051 124.481C249.216 124.481 96.9456 276.713 96.9456 464.5C96.9456 652.287 249.216 804.519 437.051 804.519Z" fill="#0328EE" fill-opacity="0.2"/>
</g>
</g>
<path d="M156.181 24.7055C156.181 11.0604 167.243 -0.000976562 180.888 -0.000976562H930.772C944.417 -0.000976562 955.479 11.0605 955.479 24.7055V545.363H156.181V24.7055Z" fill="#23213B"/>
<path d="M186.769 579.812C186.502 580.477 185.651 581.886 184.373 582.206C184.24 583.137 183.654 584.998 182.377 584.998H127.678C126.4 584.998 125.815 583.137 125.682 582.206C124.404 581.886 123.552 580.477 123.286 579.812H186.769Z" fill="#23213B"/>
<path d="M988.042 579.812C987.775 580.477 986.924 581.886 985.646 582.206C985.513 583.137 984.927 584.998 983.65 584.998H928.951C927.674 584.998 927.088 583.137 926.955 582.206C925.677 581.886 924.826 580.477 924.559 579.812H988.042Z" fill="#23213B"/>
<path d="M1041 548.698V544.971H70.004V548.698C70.004 559.589 70.004 565.034 72.0928 569.194C73.9302 572.853 76.862 575.828 80.468 577.692C84.5675 579.812 89.9341 579.812 100.667 579.812H1010.34C1021.07 579.812 1026.44 579.812 1030.54 577.692C1034.15 575.828 1037.08 572.853 1038.92 569.194C1041 565.034 1041 559.589 1041 548.698Z" fill="#1C1B2D"/>
<path d="M471.294 544.971H640.181C640.181 552.242 634.286 558.137 627.015 558.137H484.46C477.189 558.137 471.294 552.242 471.294 544.971Z" fill="#353447"/>
<path d="M180.195 13.8086C174.006 13.8086 168.989 18.8063 168.989 24.9712V514.531H943.031V24.9712C943.031 18.8063 938.014 13.8086 931.825 13.8086H596.287C595.197 13.8086 594.313 14.6916 594.313 15.7807V23.6694C594.313 25.4847 592.84 26.9563 591.024 26.9563H520.633C518.453 26.9563 516.686 25.1904 516.686 23.012V15.7807C516.686 14.6916 515.802 13.8086 514.712 13.8086H180.195Z" fill="#353447"/>
<defs>
<filter id="filter0_f_237_3342" x="0.464272" y="28" width="873.173" height="873" filterUnits="userSpaceOnUse" color-interpolation-filters="sRGB">
<feFlood flood-opacity="0" result="BackgroundImageFix"/>
<feBlend mode="normal" in="SourceGraphic" in2="BackgroundImageFix" result="shape"/>
<feGaussianBlur stdDeviation="48.2406" result="effect1_foregroundBlur_237_3342"/>
</filter>
<clipPath id="clip0_237_3342">
<rect width="874" height="873" fill="white" transform="translate(0 28)"/>
</clipPath>
</defs>
</svg>
