<svg width="1512" height="631" viewBox="0 0 1512 631" fill="none" xmlns="http://www.w3.org/2000/svg">
<mask id="mask0_13_52" style="mask-type:alpha" maskUnits="userSpaceOnUse" x="0" y="0" width="1512" height="631">
<rect width="1512" height="631" fill="#D9D9D9"/>
</mask>
<g mask="url(#mask0_13_52)">
<rect x="1104.96" y="55.4504" width="318.694" height="660.844" rx="41.1643" transform="rotate(8.64559 1104.96 55.4504)" fill="#1C1B2D"/>
<rect x="1108.31" y="60.0049" width="309.702" height="652.846" rx="37.6241" transform="rotate(8.64559 1108.31 60.0049)" fill="#23213B"/>
<rect x="1077.95" y="213.145" width="1.99808" height="46.9889" rx="0.884738" transform="rotate(8.64559 1077.95 213.145)" fill="#1C1B2D"/>
<rect x="1069.09" y="271.461" width="1.99808" height="46.9889" rx="0.884738" transform="rotate(8.64559 1069.09 271.461)" fill="#1C1B2D"/>
<rect x="1084.57" y="169.655" width="2.99712" height="22.9946" rx="0.884738" transform="rotate(8.64559 1084.57 169.655)" fill="#1C1B2D"/>
<rect x="1391.18" y="293.131" width="2.99712" height="72.9828" rx="0.884738" transform="rotate(8.64559 1391.18 293.131)" fill="#1C1B2D"/>
<rect x="1114.86" y="70.1018" width="292.719" height="634.851" rx="31.0294" transform="rotate(8.64559 1114.86 70.1018)" fill="#353447"/>
<rect x="1216.53" y="92.6392" width="85.9174" height="24.9941" rx="12.4971" transform="rotate(8.64559 1216.53 92.6392)" fill="#1C1B2D"/>
<rect x="758.985" y="69.7356" width="318.694" height="660.844" rx="41.1643" transform="rotate(-5.06 758.985 69.7356)" fill="#1C1B2D"/>
<rect x="763.319" y="73.3667" width="309.702" height="652.846" rx="37.6241" transform="rotate(-5.06 763.319 73.3667)" fill="#23213B"/>
<rect x="770.109" y="229.339" width="1.99808" height="46.9889" rx="0.884738" transform="rotate(-5.06 770.109 229.339)" fill="#1C1B2D"/>
<rect x="775.311" y="288.095" width="1.99808" height="46.9889" rx="0.884738" transform="rotate(-5.06 775.311 288.095)" fill="#1C1B2D"/>
<rect x="766.229" y="185.521" width="2.99712" height="22.9946" rx="0.884738" transform="rotate(-5.06 766.229 185.521)" fill="#1C1B2D"/>
<rect x="1093.37" y="232.834" width="2.99712" height="72.9828" rx="0.884738" transform="rotate(-5.06 1093.37 232.834)" fill="#1C1B2D"/>
<rect x="772.074" y="81.6245" width="292.719" height="634.851" rx="31.0294" transform="rotate(-5.06 772.074 81.6245)" fill="#353447"/>
<rect x="876.186" y="79.4319" width="85.9174" height="24.9941" rx="12.4971" transform="rotate(-5.06 876.186 79.4319)" fill="#1C1B2D"/>
</g>
</svg>
