<svg
    xmlns="http://www.w3.org/2000/svg"
    width="35"
    height="20"
    viewBox="0 0 35 20"
    fill="none"
>
    <g clipPath="url(#clip0_213_1243)">
        <path
            d="M24.1289 14.2173C24.0604 14.0419 17.9866 2.50871 17.8953 2.3333C17.5756 1.5878 17.0048 0.951943 16.2512 0.513419C14.356 -0.53904 11.9357 0.0748941 10.8396 1.89477C10.0861 3.14457 10.1318 4.61362 10.8625 5.77571C10.931 5.9292 16.7307 16.98 16.8449 17.1554C16.9134 17.3308 17.0048 17.4843 17.0961 17.6597C17.4158 18.4052 17.9866 19.0411 18.7401 19.4796C20.6353 20.5321 23.0557 19.9401 24.1517 18.1202C24.9281 16.8704 24.8596 15.3794 24.1289 14.2173Z"
            fill="white"
            fillOpacity="0.4"
        />
        <path
            d="M17.4462 6.40987C18.1146 5.7293 18.5294 4.80723 18.5294 3.79735C18.5294 1.71173 16.7548 -0.000671387 14.5424 -0.000671387C13.1826 -0.000671387 11.9842 0.635992 11.2698 1.62392C11.1315 1.75564 1.19842 13.4351 1.08319 13.5888C0.414838 14.2694 0 15.1914 0 16.2013C0 18.3089 1.79763 19.9993 3.98705 19.9993C5.3468 19.9993 6.54522 19.3627 7.25966 18.3747C7.39794 18.2211 17.354 6.56354 17.4462 6.40987Z"
            fill="white"
        />
        <path
            d="M33.9183 6.40988C34.5858 5.72931 35.0001 4.80725 35.0001 3.79737C35.0001 1.68979 33.2047 -0.000656128 31.018 -0.000656128C29.66 -0.000656128 28.463 0.636007 27.7495 1.62393C27.6114 1.75566 17.6676 13.4351 17.5525 13.5888C16.885 14.2694 16.4707 15.1914 16.4707 16.2013C16.4707 18.3089 18.2661 19.9993 20.4528 19.9993C21.8109 19.9993 23.0078 19.3627 23.7213 18.3748C23.8825 18.2211 33.8032 6.56356 33.9183 6.40988Z"
            fill="white"
        />
    </g>
    <defs>
        <clipPath id="clip0_213_1243">
            <rect width="35" height="20" fill="white" />
        </clipPath>
    </defs>
</svg>