<svg
    xmlns="http://www.w3.org/2000/svg"
    width="80"
    height="23"
    viewBox="0 0 80 23"
    fill="none"
>
    <path
        d="M0 8.1763C0 6.5928 0.342602 5.1844 1.0277 3.9511C1.7129 2.7026 2.6645 1.7357 3.8826 1.0505C5.1159 0.3502 6.5091 0 8.0621 0C9.9654 0 11.5946 0.5024 12.9497 1.5073C14.3048 2.5122 15.2107 3.8826 15.6675 5.6183H11.3738C11.054 4.9484 10.5973 4.4383 10.0034 4.0881C9.4249 3.7379 8.7625 3.5628 8.0164 3.5628C6.8136 3.5628 5.8391 3.9815 5.0931 4.819C4.347 5.6564 3.974 6.7755 3.974 8.1763C3.974 9.5771 4.347 10.6962 5.0931 11.5336C5.8391 12.3711 6.8136 12.7898 8.0164 12.7898C8.7625 12.7898 9.4249 12.6147 10.0034 12.2645C10.5973 11.9143 11.054 11.4042 11.3738 10.7343H15.6675C15.2107 12.47 14.3048 13.8404 12.9497 14.8453C11.5946 15.835 9.9654 16.3298 8.0621 16.3298C6.5091 16.3298 5.1159 15.9872 3.8826 15.3021C2.6645 14.6017 1.7129 13.6348 1.0277 12.4015C0.342602 11.1682 0 9.7598 0 8.1763ZM21.9646 5.5955C22.4214 4.8951 22.9924 4.347 23.6776 3.9511C24.3627 3.54 25.124 3.3344 25.9615 3.3344V7.4683H24.888C23.9136 7.4683 23.1827 7.6815 22.6955 8.1078C22.2083 8.5189 21.9646 9.2497 21.9646 10.3003V16.2156H18.0592V3.4715H21.9646V5.5955ZM40.8464 3.4715L32.8528 22.268H28.6504L31.5738 15.7817L26.3893 3.4715H30.7516L33.6978 11.4423L36.6212 3.4715H40.8464ZM46.1644 5.2758C46.5444 4.6819 47.0704 4.2023 47.7404 3.8369C48.4104 3.4715 49.1944 3.2888 50.0924 3.2888C51.1434 3.2888 52.0944 3.5552 52.9474 4.0881C53.8004 4.621 54.4704 5.3823 54.9574 6.372C55.4594 7.3617 55.7104 8.5113 55.7104 9.8207C55.7104 11.1301 55.4594 12.2873 54.9574 13.2922C54.4704 14.2819 53.8004 15.0508 52.9474 15.599C52.0944 16.1319 51.1434 16.3983 50.0924 16.3983C49.2094 16.3983 48.4254 16.2156 47.7404 15.8502C47.0704 15.4848 46.5444 15.0128 46.1644 14.4342V22.2908H42.2587V3.4715H46.1644V5.2758ZM51.7364 9.8207C51.7364 8.8462 51.4624 8.0849 50.9144 7.5368C50.3814 6.9735 49.7194 6.6918 48.9274 6.6918C48.1514 6.6918 47.4884 6.9735 46.9404 7.5368C46.4074 8.1002 46.1414 8.8691 46.1414 9.8436C46.1414 10.818 46.4074 11.5869 46.9404 12.1503C47.4884 12.7136 48.1514 12.9953 48.9274 12.9953C49.7044 12.9953 50.3664 12.7136 50.9144 12.1503C51.4624 11.5717 51.7364 10.7952 51.7364 9.8207ZM64.8624 12.904V16.2156H62.8754C61.4594 16.2156 60.3554 15.873 59.5644 15.1879C58.7724 14.4875 58.3764 13.3531 58.3764 11.7849V6.7146H56.8234V3.4715H58.3764V0.3654H62.2814V3.4715H64.8394V6.7146H62.2814V11.8305C62.2814 12.2112 62.3734 12.4853 62.5564 12.6527C62.7384 12.8202 63.0434 12.904 63.4694 12.904H64.8624ZM72.8394 16.3983C71.5904 16.3983 70.4644 16.1319 69.4594 15.599C68.4694 15.0661 67.6854 14.3048 67.1064 13.3151C66.5434 12.3254 66.2614 11.1682 66.2614 9.8436C66.2614 8.5341 66.5504 7.3846 67.1294 6.3949C67.7084 5.39 68.4994 4.621 69.5044 4.0881C70.5094 3.5552 71.6364 3.2888 72.8844 3.2888C74.1334 3.2888 75.2604 3.5552 76.2654 4.0881C77.2704 4.621 78.0614 5.39 78.6404 6.3949C79.2184 7.3846 79.5084 8.5341 79.5084 9.8436C79.5084 11.153 79.2114 12.3102 78.6174 13.3151C78.0384 14.3048 77.2394 15.0661 76.2194 15.599C75.2144 16.1319 74.0874 16.3983 72.8394 16.3983ZM72.8394 13.0182C73.5854 13.0182 74.2174 12.7441 74.7344 12.196C75.2674 11.6478 75.5344 10.8637 75.5344 9.8436C75.5344 8.8234 75.2754 8.0393 74.7574 7.4911C74.2554 6.943 73.6314 6.6689 72.8844 6.6689C72.1234 6.6689 71.4914 6.943 70.9894 7.4911C70.4864 8.024 70.2354 8.8082 70.2354 9.8436C70.2354 10.8637 70.4794 11.6478 70.9664 12.196C71.4684 12.7441 72.0934 13.0182 72.8394 13.0182Z"
        fill="white"
    />
</svg>